<svg width="755" height="563" viewBox="0 0 755 563" fill="none" xmlns="http://www.w3.org/2000/svg">
<path opacity="0.4" d="M754.627 0.727295H-0.236557V561.663H754.627V0.727295Z" stroke="url(#paint0_linear_4_89)" stroke-width="1.45446"/>
<path d="M363.62 0V30.1959C363.62 40.9062 354.938 49.5886 344.227 49.5886H265.687C254.976 49.5886 246.294 58.2711 246.294 68.9814V85.3281" stroke="url(#paint1_linear_4_89)" stroke-width="0.969638"/>
<path d="M483.855 562.39V387.855C483.855 377.145 492.537 368.462 503.248 368.462H581.92C592.629 368.462 601.312 377.145 601.312 387.855V413.712C601.312 424.422 609.994 433.105 620.705 433.105H755.354" stroke="url(#paint2_linear_4_89)" stroke-width="0.969638"/>
<path d="M-0.963791 309.315H2.48831C13.1986 309.315 21.8811 300.632 21.8811 289.922V282.165C21.8811 271.454 30.5635 262.772 41.2738 262.772H231.749" stroke="url(#paint3_linear_4_89)" stroke-width="0.969638"/>
<path d="M94.0607 399.491V451.366C94.0607 462.077 102.743 470.759 113.453 470.759H214.296C225.006 470.759 233.689 479.441 233.689 490.152V562.39" stroke="url(#paint4_linear_4_89)" stroke-width="0.969638"/>
<defs>
<linearGradient id="paint0_linear_4_89" x1="762.32" y1="562.39" x2="-100.346" y2="313.81" gradientUnits="userSpaceOnUse">
<stop stop-color="#06131B" stop-opacity="0.1"/>
<stop offset="1" stop-color="#06131B" stop-opacity="0.04"/>
</linearGradient>
<linearGradient id="paint1_linear_4_89" x1="363.62" y1="0.111689" x2="361.887" y2="87.7264" gradientUnits="userSpaceOnUse">
<stop stop-color="#5B002C" stop-opacity="0.35"/>
<stop offset="1" stop-color="#5B002C" stop-opacity="0"/>
</linearGradient>
<linearGradient id="paint2_linear_4_89" x1="388.061" y1="368.462" x2="757.003" y2="425.555" gradientUnits="userSpaceOnUse">
<stop stop-color="#5B002C" stop-opacity="0.35"/>
<stop offset="1" stop-color="#5B002C" stop-opacity="0"/>
</linearGradient>
<linearGradient id="paint3_linear_4_89" x1="-0.659185" y1="309.315" x2="234.043" y2="277.396" gradientUnits="userSpaceOnUse">
<stop stop-color="#5B002C" stop-opacity="0.35"/>
<stop offset="1" stop-color="#5B002C" stop-opacity="0"/>
</linearGradient>
<linearGradient id="paint4_linear_4_89" x1="94.0605" y1="399.704" x2="99.3647" y2="566.866" gradientUnits="userSpaceOnUse">
<stop stop-color="#5B002C" stop-opacity="0.35"/>
<stop offset="1" stop-color="#5B002C" stop-opacity="0"/>
</linearGradient>
</defs>
</svg>
