<svg width="305" height="368" viewBox="0 0 305 368" fill="none" xmlns="http://www.w3.org/2000/svg">
<path d="M75 366.5C75 367.328 74.329 368 73.5 368C72.672 368 72 367.328 72 366.5H75ZM113.5 0H343.589V3H113.5V0ZM72 366.5V41.5H75V366.5H72ZM113.5 3C92.237 3 75 20.237 75 41.5H72C72 18.5802 90.581 0 113.5 0V3Z" fill="#000AFF" fill-opacity="0.66"/>
<path d="M152.59 18H16.59C7.75347 18 0.590027 25.1634 0.590027 34C0.590027 42.8366 7.75347 50 16.59 50H152.59C161.427 50 168.59 42.8366 168.59 34C168.59 25.1634 161.427 18 152.59 18Z" fill="#EBF1FA"/>
<path d="M57.3629 41V27.1818H62.6527C63.6513 27.1818 64.4812 27.3393 65.1424 27.6541C65.8081 27.9645 66.3052 28.3896 66.6335 28.9293C66.9664 29.4691 67.1328 30.0808 67.1328 30.7646C67.1328 31.3268 67.0249 31.8081 66.8089 32.2085C66.593 32.6043 66.3029 32.9259 65.9386 33.1733C65.5742 33.4207 65.1671 33.5984 64.7173 33.7063V33.8413C65.2076 33.8683 65.6777 34.0189 66.1275 34.2933C66.5818 34.5632 66.9529 34.9455 67.2408 35.4403C67.5286 35.9351 67.6726 36.5334 67.6726 37.2351C67.6726 37.9503 67.4994 38.5935 67.1531 39.1648C66.8067 39.7315 66.2849 40.1791 65.5877 40.5075C64.8905 40.8358 64.0134 41 62.9563 41H57.3629ZM59.8661 38.9084H62.5582C63.4669 38.9084 64.1213 38.7352 64.5217 38.3888C64.9265 38.038 65.1289 37.5882 65.1289 37.0394C65.1289 36.6301 65.0277 36.2612 64.8253 35.9329C64.6229 35.6 64.335 35.3391 63.9616 35.1502C63.5883 34.9568 63.143 34.8601 62.6257 34.8601H59.8661V38.9084ZM59.8661 33.0586H62.3423C62.7741 33.0586 63.1632 32.9799 63.5096 32.8224C63.8559 32.6605 64.1281 32.4334 64.326 32.141C64.5284 31.8441 64.6296 31.4933 64.6296 31.0884C64.6296 30.5531 64.4407 30.1123 64.0629 29.766C63.6895 29.4196 63.134 29.2464 62.3963 29.2464H59.8661V33.0586ZM74.3303 41.2024C73.2913 41.2024 72.3939 40.9865 71.6382 40.5547C70.887 40.1184 70.309 39.5021 69.9042 38.706C69.4994 37.9053 69.297 36.9629 69.297 35.8789C69.297 34.8129 69.4994 33.8772 69.9042 33.0721C70.3135 32.2624 70.8848 31.6327 71.618 31.1829C72.3512 30.7286 73.2126 30.5014 74.2021 30.5014C74.8409 30.5014 75.4436 30.6049 76.0104 30.8118C76.5816 31.0142 77.0854 31.3291 77.5218 31.7564C77.9626 32.1837 78.3089 32.728 78.5608 33.3892C78.8127 34.0459 78.9387 34.8286 78.9387 35.7372V36.4862H70.444V34.8398H76.5974C76.5929 34.372 76.4917 33.956 76.2938 33.5916C76.0959 33.2228 75.8192 32.9326 75.4639 32.7212C75.113 32.5098 74.7037 32.4041 74.2359 32.4041C73.7366 32.4041 73.298 32.5256 72.9202 32.7685C72.5423 33.0069 72.2477 33.3217 72.0363 33.7131C71.8294 34.0999 71.7237 34.525 71.7192 34.9883V36.4254C71.7192 37.0282 71.8294 37.5455 72.0498 37.9773C72.2702 38.4046 72.5783 38.733 72.9742 38.9624C73.37 39.1873 73.8333 39.2997 74.3641 39.2997C74.7194 39.2997 75.041 39.2502 75.3289 39.1513C75.6168 39.0478 75.8664 38.8971 76.0779 38.6992C76.2893 38.5013 76.449 38.2562 76.5569 37.9638L78.8374 38.2202C78.6935 38.8229 78.4191 39.3492 78.0143 39.799C77.614 40.2443 77.1012 40.5907 76.4759 40.8381C75.8507 41.081 75.1355 41.2024 74.3303 41.2024ZM86.2543 30.6364V32.5256H80.1278V30.6364H86.2543ZM81.6594 41V29.658C81.6594 28.9608 81.8034 28.3806 82.0913 27.9173C82.3836 27.454 82.775 27.1076 83.2653 26.8782C83.7556 26.6488 84.2998 26.5341 84.8981 26.5341C85.3209 26.5341 85.6965 26.5678 86.0249 26.6353C86.3532 26.7028 86.5961 26.7635 86.7536 26.8175L86.2678 28.7067C86.1643 28.6752 86.0339 28.6437 85.8764 28.6122C85.719 28.5762 85.5436 28.5582 85.3501 28.5582C84.8958 28.5582 84.5742 28.6684 84.3853 28.8888C84.2009 29.1048 84.1087 29.4151 84.1087 29.82V41H81.6594ZM92.298 41.2024C91.286 41.2024 90.4088 40.9798 89.6666 40.5344C88.9244 40.0891 88.3487 39.4661 87.9394 38.6655C87.5345 37.8648 87.3321 36.9292 87.3321 35.8587C87.3321 34.7881 87.5345 33.8503 87.9394 33.0451C88.3487 32.2399 88.9244 31.6147 89.6666 31.1694C90.4088 30.7241 91.286 30.5014 92.298 30.5014C93.3101 30.5014 94.1872 30.7241 94.9294 31.1694C95.6716 31.6147 96.2451 32.2399 96.6499 33.0451C97.0593 33.8503 97.2639 34.7881 97.2639 35.8587C97.2639 36.9292 97.0593 37.8648 96.6499 38.6655C96.2451 39.4661 95.6716 40.0891 94.9294 40.5344C94.1872 40.9798 93.3101 41.2024 92.298 41.2024ZM92.3115 39.2457C92.8603 39.2457 93.3191 39.0951 93.6879 38.7937C94.0568 38.4878 94.3312 38.0785 94.5111 37.5657C94.6955 37.0529 94.7877 36.4817 94.7877 35.8519C94.7877 35.2177 94.6955 34.6442 94.5111 34.1314C94.3312 33.6141 94.0568 33.2025 93.6879 32.8967C93.3191 32.5908 92.8603 32.4379 92.3115 32.4379C91.7493 32.4379 91.2815 32.5908 90.9081 32.8967C90.5393 33.2025 90.2626 33.6141 90.0782 34.1314C89.8983 34.6442 89.8083 35.2177 89.8083 35.8519C89.8083 36.4817 89.8983 37.0529 90.0782 37.5657C90.2626 38.0785 90.5393 38.4878 90.9081 38.7937C91.2815 39.0951 91.7493 39.2457 92.3115 39.2457ZM99.337 41V30.6364H101.705V32.3636H101.813C102.002 31.7654 102.326 31.3043 102.785 30.9805C103.248 30.6521 103.777 30.4879 104.37 30.4879C104.505 30.4879 104.656 30.4947 104.822 30.5082C104.993 30.5172 105.135 30.5329 105.248 30.5554V32.8022C105.144 32.7662 104.98 32.7347 104.755 32.7077C104.535 32.6763 104.321 32.6605 104.114 32.6605C103.669 32.6605 103.268 32.7572 102.913 32.9506C102.562 33.1396 102.286 33.4027 102.083 33.7401C101.881 34.0774 101.779 34.4665 101.779 34.9073V41H99.337ZM111.032 41.2024C109.992 41.2024 109.095 40.9865 108.339 40.5547C107.588 40.1184 107.01 39.5021 106.605 38.706C106.201 37.9053 105.998 36.9629 105.998 35.8789C105.998 34.8129 106.201 33.8772 106.605 33.0721C107.015 32.2624 107.586 31.6327 108.319 31.1829C109.052 30.7286 109.914 30.5014 110.903 30.5014C111.542 30.5014 112.145 30.6049 112.712 30.8118C113.283 31.0142 113.787 31.3291 114.223 31.7564C114.664 32.1837 115.01 32.728 115.262 33.3892C115.514 34.0459 115.64 34.8286 115.64 35.7372V36.4862H107.145V34.8398H113.299C113.294 34.372 113.193 33.956 112.995 33.5916C112.797 33.2228 112.52 32.9326 112.165 32.7212C111.814 32.5098 111.405 32.4041 110.937 32.4041C110.438 32.4041 109.999 32.5256 109.621 32.7685C109.244 33.0069 108.949 33.3217 108.737 33.7131C108.531 34.0999 108.425 34.525 108.42 34.9883V36.4254C108.42 37.0282 108.531 37.5455 108.751 37.9773C108.971 38.4046 109.28 38.733 109.675 38.9624C110.071 39.1873 110.534 39.2997 111.065 39.2997C111.421 39.2997 111.742 39.2502 112.03 39.1513C112.318 39.0478 112.568 38.8971 112.779 38.6992C112.99 38.5013 113.15 38.2562 113.258 37.9638L115.539 38.2202C115.395 38.8229 115.12 39.3492 114.715 39.799C114.315 40.2443 113.802 40.5907 113.177 40.8381C112.552 41.081 111.837 41.2024 111.032 41.2024Z" fill="#3C39D5"/>
<path d="M152.59 18.75H16.59C8.16768 18.75 1.34003 25.5777 1.34003 34C1.34003 42.4223 8.16768 49.25 16.59 49.25H152.59C161.012 49.25 167.84 42.4223 167.84 34C167.84 25.5777 161.012 18.75 152.59 18.75Z" stroke="#0D33FB" stroke-width="1.5" stroke-dasharray="8 8"/>
</svg>
