<svg width="48" height="49" viewBox="0 0 48 49" fill="none" xmlns="http://www.w3.org/2000/svg">
<rect y="0.589966" width="48" height="48" rx="24" fill="#240213" fill-opacity="0.08"/>
<path opacity="0.2" d="M28.5 21.59C28.5 22.48 28.2361 23.35 27.7416 24.0901C27.2471 24.8301 26.5443 25.4069 25.7221 25.7475C24.8998 26.0881 23.995 26.1772 23.1221 26.0035C22.2492 25.8299 21.4474 25.4013 20.818 24.772C20.1887 24.1426 19.7601 23.3408 19.5865 22.4679C19.4128 21.595 19.502 20.6902 19.8425 19.8679C20.1831 19.0456 20.7599 18.3428 21.4999 17.8484C22.24 17.3539 23.11 17.09 24 17.09C25.1935 17.09 26.3381 17.5641 27.182 18.408C28.0259 19.2519 28.5 20.3965 28.5 21.59Z" fill="#240213"/>
<path d="M32.25 21.5871C32.2508 20.1967 31.9003 18.8288 31.2309 17.6102C30.5616 16.3916 29.5951 15.362 28.4213 14.6169C27.2475 13.8718 25.9044 13.4355 24.5168 13.3484C23.1293 13.2613 21.7422 13.5262 20.4844 14.1187C19.2266 14.7112 18.139 15.6119 17.3225 16.7372C16.506 17.8625 15.9872 19.1759 15.8141 20.5554C15.6411 21.9349 15.8195 23.3358 16.3328 24.6279C16.846 25.92 17.6775 27.0614 18.75 27.9461V35.0871C18.7499 35.215 18.7825 35.3408 18.8448 35.4525C18.907 35.5643 18.9968 35.6583 19.1056 35.7255C19.2144 35.7928 19.3386 35.8311 19.4663 35.8369C19.5941 35.8426 19.7212 35.8156 19.8356 35.7583L24 33.6808L28.1653 35.763C28.2697 35.813 28.3842 35.8383 28.5 35.8371C28.6989 35.8371 28.8897 35.7581 29.0303 35.6174C29.171 35.4768 29.25 35.286 29.25 35.0871V27.9461C30.1884 27.1733 30.944 26.2023 31.4627 25.1028C31.9814 24.0034 32.2503 22.8027 32.25 21.5871ZM17.25 21.5871C17.25 20.252 17.6459 18.947 18.3876 17.837C19.1293 16.7269 20.1835 15.8618 21.4169 15.3509C22.6503 14.84 24.0075 14.7063 25.3169 14.9668C26.6262 15.2272 27.829 15.8701 28.773 16.8141C29.717 17.7581 30.3599 18.9608 30.6203 20.2702C30.8808 21.5796 30.7471 22.9368 30.2362 24.1702C29.7253 25.4036 28.8601 26.4578 27.7501 27.1995C26.6401 27.9412 25.335 28.3371 24 28.3371C22.2104 28.3351 20.4947 27.6233 19.2292 26.3579C17.9638 25.0924 17.252 23.3767 17.25 21.5871ZM27.75 33.874L24.3347 32.1668C24.2305 32.1146 24.1156 32.0875 23.9991 32.0875C23.8825 32.0875 23.7676 32.1146 23.6634 32.1668L20.25 33.874V28.9343C21.411 29.5277 22.6962 29.8371 24 29.8371C25.3038 29.8371 26.589 29.5277 27.75 28.9343V33.874ZM24 26.8371C25.0384 26.8371 26.0534 26.5292 26.9167 25.9523C27.7801 25.3754 28.453 24.5555 28.8504 23.5962C29.2477 22.6369 29.3517 21.5812 29.1491 20.5628C28.9466 19.5444 28.4465 18.609 27.7123 17.8747C26.9781 17.1405 26.0426 16.6405 25.0242 16.4379C24.0058 16.2354 22.9502 16.3393 21.9909 16.7367C21.0316 17.134 20.2117 17.807 19.6348 18.6703C19.0579 19.5337 18.75 20.5487 18.75 21.5871C18.7515 22.979 19.3051 24.3135 20.2893 25.2978C21.2736 26.282 22.6081 26.8356 24 26.8371ZM24 17.8371C24.7417 17.8371 25.4667 18.057 26.0834 18.469C26.7001 18.8811 27.1807 19.4668 27.4646 20.152C27.7484 20.8372 27.8226 21.5912 27.6779 22.3186C27.5333 23.0461 27.1761 23.7143 26.6517 24.2387C26.1272 24.7632 25.459 25.1203 24.7316 25.265C24.0042 25.4097 23.2502 25.3355 22.5649 25.0516C21.8797 24.7678 21.294 24.2872 20.882 23.6705C20.4699 23.0538 20.25 22.3287 20.25 21.5871C20.25 20.5925 20.6451 19.6387 21.3483 18.9354C22.0516 18.2321 23.0054 17.8371 24 17.8371Z" fill="#240213"/>
</svg>
