<svg width="48" height="49" viewBox="0 0 48 49" fill="none" xmlns="http://www.w3.org/2000/svg">
<rect y="0.589966" width="48" height="48" rx="24" fill="#240213" fill-opacity="0.08"/>
<path opacity="0.2" d="M34.5 23.09V26.09C34.5 26.4878 34.342 26.8694 34.0607 27.1507C33.7794 27.432 33.3978 27.59 33 27.59H32.25L30.5531 32.3422C30.5011 32.488 30.4052 32.6141 30.2786 32.7032C30.1521 32.7923 30.001 32.8401 29.8463 32.84H28.6538C28.499 32.8401 28.3479 32.7923 28.2214 32.7032C28.0948 32.6141 27.9989 32.488 27.9469 32.3422L27.5897 31.34H21.1603L20.8031 32.3422C20.7511 32.488 20.6552 32.6141 20.5286 32.7032C20.4021 32.7923 20.2511 32.8401 20.0963 32.84H18.9038C18.749 32.8401 18.5979 32.7923 18.4714 32.7032C18.3448 32.6141 18.2489 32.488 18.1969 32.3422L16.9688 28.9025C15.7006 27.5217 14.9979 25.7147 15 23.84C15 21.8508 15.7902 19.9432 17.1967 18.5367C18.6032 17.1301 20.5109 16.34 22.5 16.34H25.5C26.9635 16.3395 28.3952 16.7673 29.6186 17.5706C30.842 18.3738 31.8036 19.5175 32.385 20.8606C32.4879 21.099 32.5786 21.3424 32.6569 21.59H33C33.3978 21.59 33.7794 21.748 34.0607 22.0293C34.342 22.3106 34.5 22.6922 34.5 23.09Z" fill="#240213"/>
<path d="M30 23.465C30 23.6875 29.934 23.905 29.8104 24.09C29.6868 24.275 29.5111 24.4192 29.3055 24.5044C29.1 24.5895 28.8738 24.6118 28.6555 24.5684C28.4373 24.525 28.2368 24.4178 28.0795 24.2605C27.9222 24.1032 27.815 23.9027 27.7716 23.6845C27.7282 23.4662 27.7505 23.24 27.8356 23.0345C27.9208 22.8289 28.065 22.6532 28.25 22.5296C28.435 22.4059 28.6525 22.34 28.875 22.34C29.1734 22.34 29.4595 22.4585 29.6705 22.6695C29.8815 22.8805 30 23.1666 30 23.465ZM26.25 18.59H22.5C22.3011 18.59 22.1103 18.669 21.9697 18.8096C21.829 18.9503 21.75 19.1411 21.75 19.34C21.75 19.5389 21.829 19.7296 21.9697 19.8703C22.1103 20.0109 22.3011 20.09 22.5 20.09H26.25C26.4489 20.09 26.6397 20.0109 26.7803 19.8703C26.921 19.7296 27 19.5389 27 19.34C27 19.1411 26.921 18.9503 26.7803 18.8096C26.6397 18.669 26.4489 18.59 26.25 18.59ZM35.25 23.09V26.09C35.25 26.6867 35.0129 27.259 34.591 27.681C34.169 28.1029 33.5967 28.34 33 28.34H32.7788L31.2591 32.5944C31.155 32.8858 30.9634 33.1379 30.7105 33.3161C30.4575 33.4944 30.1557 33.59 29.8463 33.59H28.6538C28.3443 33.59 28.0425 33.4944 27.7895 33.3161C27.5366 33.1379 27.345 32.8858 27.2409 32.5944L27.0609 32.09H21.6891L21.5091 32.5944C21.405 32.8858 21.2134 33.1379 20.9605 33.3161C20.7075 33.4944 20.4057 33.59 20.0962 33.59H18.9037C18.5943 33.59 18.2925 33.4944 18.0395 33.3161C17.7866 33.1379 17.595 32.8858 17.4909 32.5944L16.3125 29.2981C15.1914 28.0293 14.4894 26.4453 14.3025 24.7625C14.0605 24.8896 13.8578 25.0805 13.7163 25.3145C13.5749 25.5484 13.5001 25.8166 13.5 26.09C13.5 26.2889 13.421 26.4797 13.2803 26.6203C13.1397 26.761 12.9489 26.84 12.75 26.84C12.5511 26.84 12.3603 26.761 12.2197 26.6203C12.079 26.4797 12 26.2889 12 26.09C12.0011 25.4212 12.2258 24.7719 12.6382 24.2453C13.0506 23.7187 13.6272 23.3451 14.2762 23.1838C14.4438 21.1168 15.3825 19.1886 16.906 17.7818C18.4295 16.375 20.4263 15.5926 22.5 15.59H32.25C32.4489 15.59 32.6397 15.669 32.7803 15.8096C32.921 15.9503 33 16.1411 33 16.34C33 16.5389 32.921 16.7296 32.7803 16.8703C32.6397 17.0109 32.4489 17.09 32.25 17.09H30.2447C31.4894 17.9632 32.4683 19.1637 33.0731 20.5587C33.1134 20.6525 33.1528 20.7462 33.1903 20.84C33.7535 20.8878 34.278 21.1458 34.6596 21.5626C35.0413 21.9795 35.252 22.5248 35.25 23.09ZM33.75 23.09C33.75 22.8911 33.671 22.7003 33.5303 22.5596C33.3897 22.419 33.1989 22.34 33 22.34H32.6569C32.4971 22.3401 32.3415 22.2893 32.2127 22.1949C32.0839 22.1004 31.9885 21.9673 31.9406 21.815C31.5109 20.4437 30.6542 19.2457 29.4956 18.3957C28.337 17.5457 26.937 17.0882 25.5 17.09H22.5C21.1901 17.0899 19.9084 17.471 18.8113 18.1868C17.7142 18.9026 16.8491 19.9221 16.3214 21.1211C15.7938 22.3201 15.6264 23.6468 15.8398 24.9392C16.0531 26.2317 16.6379 27.4342 17.5228 28.4C17.5905 28.4736 17.6428 28.56 17.6766 28.6541L18.9037 32.09H20.0962L20.4544 31.0878C20.5064 30.9422 20.6021 30.8162 20.7285 30.7271C20.8549 30.638 21.0057 30.5901 21.1603 30.59H27.5897C27.7443 30.5901 27.8951 30.638 28.0215 30.7271C28.1479 30.8162 28.2436 30.9422 28.2956 31.0878L28.6538 32.09H29.8463L31.5441 27.3378C31.5961 27.1922 31.6918 27.0662 31.8182 26.9771C31.9445 26.888 32.0954 26.8401 32.25 26.84H33C33.1989 26.84 33.3897 26.761 33.5303 26.6203C33.671 26.4797 33.75 26.2889 33.75 26.09V23.09Z" fill="#240213"/>
</svg>
