<svg width="24" height="24" viewBox="0 0 24 24" fill="none" xmlns="http://www.w3.org/2000/svg">
<g clip-path="url(#clip0_5_212)">
<mask id="mask0_5_212" style="mask-type:luminance" maskUnits="userSpaceOnUse" x="0" y="0" width="24" height="24">
<path d="M24 0H0V24H24V0Z" fill="white"/>
</mask>
<g mask="url(#mask0_5_212)">
<path d="M18.9772 4.4375C18.656 4.4375 18.3945 4.69892 18.3945 5.02016C18.3945 5.34139 18.656 5.60281 18.9772 5.60281C19.2985 5.60281 19.5598 5.34144 19.5598 5.02016C19.5598 4.69888 19.2985 4.4375 18.9772 4.4375Z" fill="#200010"/>
<path d="M11.9994 6.83594C9.1512 6.83594 6.83398 9.15316 6.83398 12.0014C6.83398 14.8496 9.1512 17.1669 11.9994 17.1669C14.8477 17.1669 17.1649 14.8496 17.1649 12.0014C17.1649 9.1532 14.8477 6.83594 11.9994 6.83594Z" fill="#200010"/>
<path d="M17.4208 0H6.57923C2.95144 0 0 2.95144 0 6.57928V17.4208C0 21.0486 2.95144 24 6.57923 24H17.4208C21.0486 24 24 21.0486 24 17.4208V6.57928C24 2.95144 21.0486 0 17.4208 0ZM12 18.5828C8.37023 18.5828 5.4173 15.6298 5.4173 12C5.4173 8.37023 8.37028 5.41734 12 5.41734C15.6297 5.41734 18.5828 8.37028 18.5828 12C18.5828 15.6297 15.6297 18.5828 12 18.5828ZM18.9765 7.02356C17.8737 7.02356 16.9765 6.12637 16.9765 5.02359C16.9765 3.92081 17.8737 3.02358 18.9765 3.02358C20.0792 3.02358 20.9764 3.92077 20.9764 5.02355C20.9764 6.12633 20.0792 7.02356 18.9765 7.02356Z" fill="#200010"/>
</g>
</g>
<defs>
<clipPath id="clip0_5_212">
<rect width="24" height="24" fill="white"/>
</clipPath>
</defs>
</svg>
