<svg width="1440" height="770" viewBox="0 0 1440 770" fill="none" xmlns="http://www.w3.org/2000/svg">
<g clip-path="url(#clip0_1_1245)">
<mask id="mask0_1_1245" style="mask-type:luminance" maskUnits="userSpaceOnUse" x="-8" y="35" width="1440" height="545">
<path d="M1432 35.8398H-8V579.84H1432V35.8398Z" fill="white"/>
</mask>
<g mask="url(#mask0_1_1245)">
<path d="M-37 42H165C176.046 42 185 50.9543 185 62V91C185 102.046 193.954 111 205 111H345" stroke="url(#paint0_linear_1_1245)"/>
<path d="M1469.5 334.84H1409H1240.38C1229.33 334.84 1220.38 343.794 1220.38 354.84V430.507C1220.38 441.552 1211.42 450.507 1200.38 450.507H973" stroke="url(#paint1_linear_1_1245)"/>
<path d="M1392 35.8398V141.84C1392 152.886 1383.05 161.84 1372 161.84H1347.11C1336.06 161.84 1327.11 152.886 1327.11 141.84V139.84C1327.11 128.794 1318.15 119.84 1307.11 119.84H1278.5C1267.45 119.84 1258.5 128.794 1258.5 139.84V203.84" stroke="url(#paint2_linear_1_1245)"/>
<path d="M0 480H17.5C28.5457 480 37.5 471.046 37.5 460V437C37.5 425.954 46.4543 417 57.5 417H382" stroke="url(#paint3_linear_1_1245)"/>
</g>
</g>
<defs>
<linearGradient id="paint0_linear_1_1245" x1="-36.5" y1="41.9999" x2="347.19" y2="99.7762" gradientUnits="userSpaceOnUse">
<stop stop-color="white" stop-opacity="0.35"/>
<stop offset="1" stop-color="#5B002C" stop-opacity="0"/>
</linearGradient>
<linearGradient id="paint1_linear_1_1245" x1="1562.84" y1="402.84" x2="1018.78" y2="586.468" gradientUnits="userSpaceOnUse">
<stop stop-color="white" stop-opacity="0.33"/>
<stop offset="1" stop-color="white" stop-opacity="0"/>
</linearGradient>
<linearGradient id="paint2_linear_1_1245" x1="1444.93" y1="161.84" x2="1239.76" y2="134.843" gradientUnits="userSpaceOnUse">
<stop stop-color="white" stop-opacity="0.44"/>
<stop offset="1" stop-color="white" stop-opacity="0"/>
</linearGradient>
<linearGradient id="paint3_linear_1_1245" x1="0.500014" y1="480" x2="382.5" y2="417" gradientUnits="userSpaceOnUse">
<stop stop-color="white" stop-opacity="0.35"/>
<stop offset="1" stop-color="#5B002C" stop-opacity="0"/>
</linearGradient>
<clipPath id="clip0_1_1245">
<rect width="1440" height="544" fill="white"/>
</clipPath>
</defs>
</svg>
