<svg width="48" height="49" viewBox="0 0 48 49" fill="none" xmlns="http://www.w3.org/2000/svg">
<rect y="0.589966" width="48" height="48" rx="24" fill="#240213" fill-opacity="0.08"/>
<path opacity="0.2" d="M33 24.7211C32.9325 29.5679 28.9763 33.5242 24.1294 33.5917H24V28.3426C24.9422 28.3441 25.8505 27.9907 26.544 27.353C27.2376 26.7152 27.6656 25.8397 27.743 24.9007C27.8204 23.9616 27.5415 23.0279 26.9617 22.2851C26.3819 21.5424 25.5438 21.0452 24.6141 20.8923C24.4411 20.8619 24.2845 20.7712 24.1721 20.6363C24.0597 20.5014 23.9987 20.331 24 20.1554V16.3426C23.9997 16.2386 24.0209 16.1356 24.0625 16.0403C24.104 15.945 24.165 15.8593 24.2414 15.7888C24.3178 15.7182 24.4081 15.6644 24.5065 15.6306C24.6049 15.5968 24.7092 15.5839 24.8128 15.5926C29.4441 16.0107 33.0656 19.966 33 24.7211Z" fill="#240213"/>
<path d="M24.8796 14.8456C24.6724 14.8276 24.4637 14.8528 24.2668 14.9197C24.0699 14.9866 23.889 15.0937 23.7357 15.2342C23.5824 15.3747 23.46 15.5456 23.3763 15.736C23.2925 15.9263 23.2493 16.132 23.2493 16.34V20.1528C23.2467 20.5066 23.3703 20.8497 23.598 21.1206C23.8257 21.3914 24.1425 21.5721 24.4915 21.6303C25.0491 21.7239 25.5689 21.9731 25.991 22.3492C26.4131 22.7254 26.7203 23.2132 26.8772 23.7563C27.0341 24.2995 27.0344 24.876 26.8779 25.4193C26.7214 25.9626 26.4146 26.4506 25.9928 26.8271C25.571 27.2036 25.0514 27.4532 24.4939 27.5472C23.9364 27.6413 23.3637 27.5758 22.8418 27.3585C22.3198 27.1411 21.8699 26.7807 21.544 26.3187C21.218 25.8568 21.0292 25.3121 20.9993 24.7475C20.9608 23.9769 21.1183 23.3413 21.468 22.8482C21.6735 22.5615 21.7705 22.211 21.7414 21.8595C21.7124 21.5079 21.5593 21.1782 21.3096 20.9291L18.7202 18.2788C18.5726 18.1312 18.3958 18.016 18.2012 17.9406C18.0065 17.8652 17.7983 17.8313 17.5898 17.841C17.3813 17.8507 17.1771 17.9038 16.9903 17.997C16.8035 18.0901 16.6382 18.2212 16.5049 18.3819C14.9421 20.255 14.1413 22.6477 14.2619 25.0841C14.3824 27.5206 15.4154 29.8225 17.1555 31.5322C18.975 33.3374 21.4362 34.3472 23.9993 34.34H24.139C26.6745 34.2969 29.094 33.2704 30.8871 31.4772C32.6801 29.684 33.7064 27.2643 33.7493 24.7288C33.8196 19.6381 29.9233 15.2975 24.8796 14.8456ZM17.6543 19.3344L20.2427 21.9772V21.9828C19.8585 22.5342 19.6172 23.1724 19.5405 23.84H15.783C15.9332 22.1826 16.5861 20.6106 17.6543 19.3344ZM15.784 25.34H19.5621C19.7176 26.2616 20.1562 27.1118 20.817 27.7727C21.4777 28.4336 22.3278 28.8724 23.2493 29.0282V32.8063C21.3284 32.6308 19.5297 31.7878 18.1659 30.4238C16.802 29.0598 15.9592 27.261 15.784 25.34ZM29.8249 30.4157C28.4664 31.7836 26.6693 32.6291 24.7493 32.8035V29.0282C25.6183 28.8833 26.4251 28.4843 27.0677 27.8816C27.682 27.3093 28.1239 26.5766 28.3435 25.7663C28.5631 24.956 28.5517 24.1005 28.3105 23.2963C28.0693 22.4921 27.608 21.7715 26.9786 21.2158C26.3493 20.6602 25.5771 20.2916 24.7493 20.1519V16.34C29.0168 16.7225 32.3121 20.3975 32.2493 24.7072C32.2198 26.8541 31.3493 28.9037 29.8249 30.4157Z" fill="#240213"/>
</svg>
