<svg width="24" height="24" viewBox="0 0 24 24" fill="none" xmlns="http://www.w3.org/2000/svg">
<path d="M14.0057 14.7011C13.4086 15.0992 12.7151 15.3096 12 15.3096C11.285 15.3096 10.5914 15.0992 9.99431 14.7011L0.159797 8.14459C0.105234 8.10822 0.0520781 8.0703 0 8.0313V18.7749C0 20.0067 0.999609 20.9843 2.20936 20.9843H21.7906C23.0224 20.9843 24 19.9847 24 18.7749V8.03125C23.9478 8.07034 23.8945 8.10836 23.8398 8.14478L14.0057 14.7011Z" fill="#200010"/>
<path d="M0.939844 6.98088L10.7744 13.5375C11.1466 13.7857 11.5733 13.9098 12 13.9098C12.4267 13.9098 12.8534 13.7856 13.2256 13.5375L23.0602 6.98088C23.6487 6.58877 24 5.93252 24 5.22423C24 4.00638 23.0092 3.01562 21.7914 3.01562H2.20861C0.990797 3.01567 0 4.00643 0 5.22541C0 5.93252 0.351375 6.58877 0.939844 6.98088Z" fill="#200010"/>
</svg>
